<?xml version="1.0" encoding="utf-8" standalone="no"?>
<!DOCTYPE svg PUBLIC "-//W3C//DTD SVG 1.1//EN"
  "http://www.w3.org/Graphics/SVG/1.1/DTD/svg11.dtd">
<svg xmlns:xlink="http://www.w3.org/1999/xlink" width="432pt" height="216pt" viewBox="0 0 432 216" xmlns="http://www.w3.org/2000/svg" version="1.1">
 <metadata>
  <rdf:RDF xmlns:dc="http://purl.org/dc/elements/1.1/" xmlns:cc="http://creativecommons.org/ns#" xmlns:rdf="http://www.w3.org/1999/02/22-rdf-syntax-ns#">
   <cc:Work>
    <dc:type rdf:resource="http://purl.org/dc/dcmitype/StillImage"/>
    <dc:date>2024-09-29T14:51:40.481311</dc:date>
    <dc:format>image/svg+xml</dc:format>
    <dc:creator>
     <cc:Agent>
      <dc:title>Matplotlib v3.9.2, https://matplotlib.org/</dc:title>
     </cc:Agent>
    </dc:creator>
   </cc:Work>
  </rdf:RDF>
 </metadata>
 <defs>
  <style type="text/css">*{stroke-linejoin: round; stroke-linecap: butt}</style>
 </defs>
 <g id="figure_1">
  <g id="patch_1">
   <path d="M 0 216 
L 432 216 
L 432 0 
L 0 0 
L 0 216 
z
" style="fill: none"/>
  </g>
  <g id="axes_1">
   <g id="line2d_1">
    <path d="M 12.15 110.338829 
L 75.050802 110.412624 
L 80.082866 110.584177 
L 83.437575 110.43497 
L 90.985671 109.763463 
L 92.663026 109.855947 
L 95.179058 110.28608 
L 100.211122 111.486434 
L 101.888477 111.596361 
L 103.565832 111.394057 
L 105.243186 110.85568 
L 106.920541 110.044023 
L 110.275251 108.283871 
L 111.952605 107.806582 
L 112.791283 107.768723 
L 113.62996 107.89089 
L 114.468637 108.182541 
L 115.307315 108.643083 
L 116.984669 110.012678 
L 121.178056 114.275621 
L 122.016733 114.840678 
L 122.855411 115.177884 
L 123.694088 115.243211 
L 124.532766 115.005892 
L 125.371443 114.451702 
L 126.21012 113.585476 
L 127.048798 112.432598 
L 128.726152 109.471484 
L 131.242184 104.616244 
L 132.080862 103.29167 
L 132.919539 102.288419 
L 133.758216 101.698163 
L 134.596894 101.594206 
L 135.435571 102.025166 
L 136.274248 103.009734 
L 137.112926 104.532939 
L 137.951603 106.544299 
L 139.628958 111.656138 
L 142.14499 119.902914 
L 142.983667 122.12046 
L 143.822345 123.784905 
L 144.661022 124.749855 
L 145.499699 124.901914 
L 146.338377 124.170408 
L 147.177054 122.535065 
L 148.015731 120.031006 
L 148.854409 116.750535 
L 150.531764 108.501163 
L 153.047796 95.407897 
L 153.886473 91.938204 
L 154.72515 89.357822 
L 155.563828 87.884503 
L 156.402505 87.681054 
L 157.241182 88.841529 
L 158.07986 91.380935 
L 158.918537 95.229346 
L 159.757214 100.23107 
L 161.434569 112.675841 
L 163.950601 132.10738 
L 164.789279 137.18127 
L 165.627956 140.919489 
L 166.466633 143.020495 
L 167.305311 143.267613 
L 168.143988 141.547119 
L 168.982665 137.860751 
L 169.821343 132.331568 
L 170.66002 125.202441 
L 172.337375 107.652512 
L 174.014729 89.022345 
L 174.853407 80.695796 
L 175.692084 73.761027 
L 176.530762 68.700168 
L 177.369439 65.901784 
L 178.208116 65.632709 
L 179.046794 68.016317 
L 179.885471 73.018879 
L 180.724148 80.445219 
L 181.562826 89.944306 
L 183.24018 113.080184 
L 184.917535 137.317372 
L 185.756212 148.037026 
L 186.59489 156.895793 
L 187.433567 163.298676 
L 188.272244 166.780045 
L 189.110922 167.036528 
L 189.949599 163.950862 
L 190.788277 157.604905 
L 191.626954 148.280648 
L 192.465631 136.448826 
L 194.142986 107.937448 
L 195.820341 78.462394 
L 196.659018 65.56268 
L 197.497695 54.985388 
L 198.336373 47.414753 
L 199.17505 43.369277 
L 200.013727 43.166349 
L 200.852405 46.898559 
L 201.691082 54.42339 
L 202.52976 65.367242 
L 203.368437 79.1438 
L 205.045792 111.98893 
L 206.723146 145.496046 
L 207.561824 160.006115 
L 208.400501 171.810553 
L 209.239178 180.176365 
L 210.077856 184.567557 
L 210.916533 184.68 
L 211.75521 180.462455 
L 212.593888 172.122276 
L 213.432565 160.115299 
L 214.271242 145.12039 
L 215.948597 109.749748 
L 217.625952 74.142999 
L 218.464629 58.886482 
L 219.303307 46.572595 
L 220.141984 37.932519 
L 220.980661 33.48 
L 221.819339 33.48 
L 222.658016 37.932519 
L 223.496693 46.572595 
L 224.335371 58.886482 
L 225.174048 74.142999 
L 229.367435 160.115299 
L 230.206112 172.122276 
L 231.04479 180.462455 
L 231.883467 184.68 
L 232.722144 184.567557 
L 233.560822 180.176365 
L 234.399499 171.810553 
L 235.238176 160.006115 
L 236.915531 129.163919 
L 239.431563 79.1438 
L 240.27024 65.367242 
L 241.108918 54.42339 
L 241.947595 46.898559 
L 242.786273 43.166349 
L 243.62495 43.369277 
L 244.463627 47.414753 
L 245.302305 54.985388 
L 246.140982 65.56268 
L 247.818337 92.879168 
L 250.334369 136.448826 
L 251.173046 148.280648 
L 252.011723 157.604905 
L 252.850401 163.950862 
L 253.689078 167.036528 
L 254.527756 166.780045 
L 255.366433 163.298676 
L 256.20511 156.895793 
L 257.043788 148.037026 
L 258.721142 125.421539 
L 261.237174 89.944306 
L 262.075852 80.445219 
L 262.914529 73.018879 
L 263.753206 68.016317 
L 264.591884 65.632709 
L 265.430561 65.901784 
L 266.269238 68.700168 
L 267.107916 73.761027 
L 267.946593 80.695796 
L 269.623948 98.197614 
L 271.301303 116.826894 
L 272.13998 125.202441 
L 272.978657 132.331568 
L 273.817335 137.860751 
L 274.656012 141.547119 
L 275.494689 143.267613 
L 276.333367 143.020495 
L 277.172044 140.919489 
L 278.010721 137.18127 
L 278.849399 132.10738 
L 280.526754 119.446876 
L 282.204108 106.149239 
L 283.042786 100.23107 
L 283.881463 95.229346 
L 284.72014 91.380935 
L 285.558818 88.841529 
L 286.397495 87.681054 
L 287.236172 87.884503 
L 288.07485 89.357822 
L 288.913527 91.938204 
L 289.752204 95.407897 
L 291.429559 103.968486 
L 293.106914 112.841365 
L 293.945591 116.750535 
L 294.784269 120.031006 
L 295.622946 122.535065 
L 296.461623 124.170408 
L 297.300301 124.901914 
L 298.138978 124.749855 
L 298.977655 123.784905 
L 299.816333 122.12046 
L 300.65501 119.902914 
L 302.332365 114.492442 
L 304.009719 108.958123 
L 304.848397 106.544299 
L 305.687074 104.532939 
L 306.525752 103.009734 
L 307.364429 102.025166 
L 308.203106 101.594206 
L 309.041784 101.698163 
L 309.880461 102.288419 
L 310.719138 103.29167 
L 311.557816 104.616244 
L 314.073848 109.471484 
L 315.751202 112.432598 
L 316.58988 113.585476 
L 317.428557 114.451702 
L 318.267234 115.005892 
L 319.105912 115.243211 
L 319.944589 115.177884 
L 320.783267 114.840678 
L 321.621944 114.275621 
L 323.299299 112.681323 
L 325.815331 110.012678 
L 327.492685 108.643083 
L 328.331363 108.182541 
L 329.17004 107.89089 
L 330.008717 107.768723 
L 330.847395 107.806582 
L 331.686072 107.986494 
L 333.363427 108.669628 
L 337.556814 110.85568 
L 339.234168 111.394057 
L 340.911523 111.596361 
L 342.588878 111.486434 
L 345.10491 110.937828 
L 348.459619 110.107252 
L 350.136974 109.855947 
L 351.814329 109.763463 
L 354.330361 109.882428 
L 361.878457 110.573044 
L 365.233166 110.532578 
L 373.61994 110.240557 
L 430.65 110.338829 
L 430.65 110.338829 
" clip-path="url(#p9d7cc9dd81)" style="fill: none; stroke: #b194e3; stroke-width: 5; stroke-linecap: square"/>
   </g>
  </g>
 </g>
 <defs>
  <clipPath id="p9d7cc9dd81">
   <rect x="54" y="25.92" width="334.8" height="166.32"/>
  </clipPath>
 </defs>
</svg>
