<?xml version="1.0" encoding="utf-8" standalone="no"?>
<!DOCTYPE svg PUBLIC "-//W3C//DTD SVG 1.1//EN"
  "http://www.w3.org/Graphics/SVG/1.1/DTD/svg11.dtd">
<svg xmlns:xlink="http://www.w3.org/1999/xlink" width="432pt" height="216pt" viewBox="0 0 432 216" xmlns="http://www.w3.org/2000/svg" version="1.1">
 <metadata>
  <rdf:RDF xmlns:dc="http://purl.org/dc/elements/1.1/" xmlns:cc="http://creativecommons.org/ns#" xmlns:rdf="http://www.w3.org/1999/02/22-rdf-syntax-ns#">
   <cc:Work>
    <dc:type rdf:resource="http://purl.org/dc/dcmitype/StillImage"/>
    <dc:date>2024-09-29T15:44:53.575931</dc:date>
    <dc:format>image/svg+xml</dc:format>
    <dc:creator>
     <cc:Agent>
      <dc:title>Matplotlib v3.9.2, https://matplotlib.org/</dc:title>
     </cc:Agent>
    </dc:creator>
   </cc:Work>
  </rdf:RDF>
 </metadata>
 <defs>
  <style type="text/css">*{stroke-linejoin: round; stroke-linecap: butt}</style>
 </defs>
 <g id="figure_1">
  <g id="patch_1">
   <path d="M 0 216 
L 432 216 
L 432 0 
L 0 0 
L 0 216 
z
" style="fill: none"/>
  </g>
  <g id="axes_1">
   <g id="line2d_1">
    <path d="M 12.15 114.045878 
L 70.018737 114.157479 
L 77.566834 114.08978 
L 84.276253 113.786297 
L 92.663026 113.388596 
L 96.017735 113.463241 
L 99.372445 113.799159 
L 102.727154 114.424883 
L 106.920541 115.504313 
L 111.113928 116.538275 
L 113.62996 116.880306 
L 115.307315 116.899002 
L 116.984669 116.702588 
L 118.662024 116.259745 
L 120.339379 115.552528 
L 122.016733 114.580594 
L 123.694088 113.364766 
L 126.21012 111.187655 
L 131.242184 106.624607 
L 132.919539 105.470881 
L 134.596894 104.722857 
L 135.435571 104.541566 
L 136.274248 104.508466 
L 137.112926 104.636477 
L 137.951603 104.936591 
L 138.790281 105.417499 
L 139.628958 106.085252 
L 140.467635 106.942942 
L 141.306313 107.990413 
L 142.983667 110.636446 
L 144.661022 113.949313 
L 146.338377 117.793446 
L 152.209118 132.153324 
L 153.886473 135.307949 
L 154.72515 136.52898 
L 155.563828 137.462409 
L 156.402505 138.07396 
L 157.241182 138.33295 
L 158.07986 138.213071 
L 158.918537 137.693137 
L 159.757214 136.757767 
L 160.595892 135.398014 
L 161.434569 133.611884 
L 162.273246 131.404774 
L 163.111924 128.789775 
L 164.789279 122.427915 
L 166.466633 114.788325 
L 168.982665 101.7971 
L 172.337375 84.364684 
L 174.014729 76.947092 
L 174.853407 73.829058 
L 175.692084 71.199544 
L 176.530762 69.123216 
L 177.369439 67.657997 
L 178.208116 66.85375 
L 179.046794 66.75107 
L 179.885471 67.380179 
L 180.724148 68.759996 
L 181.562826 70.897361 
L 182.401503 73.786467 
L 183.24018 77.408496 
L 184.078858 81.731494 
L 185.756212 92.287756 
L 187.433567 104.946977 
L 189.949599 126.337688 
L 193.304309 154.775931 
L 194.981663 166.854769 
L 195.820341 171.965554 
L 196.659018 176.324227 
L 197.497695 179.843403 
L 198.336373 182.447737 
L 199.17505 184.075512 
L 200.013727 184.68 
L 200.852405 184.230582 
L 201.691082 182.713601 
L 202.52976 180.132915 
L 203.368437 176.510154 
L 204.207114 171.884644 
L 205.045792 166.313023 
L 206.723146 152.639973 
L 208.400501 136.25567 
L 210.916533 108.747248 
L 213.432565 81.109422 
L 215.10992 64.548548 
L 216.787275 50.732338 
L 217.625952 45.140989 
L 218.464629 40.553952 
L 219.303307 37.04623 
L 220.141984 34.675283 
L 220.980661 33.48 
L 221.819339 33.48 
L 222.658016 34.675283 
L 223.496693 37.04623 
L 224.335371 40.553952 
L 225.174048 45.140989 
L 226.012725 50.732338 
L 227.69008 64.548548 
L 229.367435 81.109422 
L 232.722144 118.125478 
L 235.238176 144.730439 
L 236.915531 159.868527 
L 237.754208 166.313023 
L 238.592886 171.884644 
L 239.431563 176.510154 
L 240.27024 180.132915 
L 241.108918 182.713601 
L 241.947595 184.230582 
L 242.786273 184.68 
L 243.62495 184.075512 
L 244.463627 182.447737 
L 245.302305 179.843403 
L 246.140982 176.324227 
L 246.979659 171.965554 
L 248.657014 161.089545 
L 250.334369 148.026344 
L 257.043788 92.287756 
L 258.721142 81.731494 
L 259.55982 77.408496 
L 260.398497 73.786467 
L 261.237174 70.897361 
L 262.075852 68.759996 
L 262.914529 67.380179 
L 263.753206 66.75107 
L 264.591884 66.85375 
L 265.430561 67.657997 
L 266.269238 69.123216 
L 267.107916 71.199544 
L 267.946593 73.829058 
L 269.623948 80.483621 
L 271.301303 88.51382 
L 277.172044 118.746651 
L 278.849399 125.787859 
L 280.526754 131.404774 
L 281.365431 133.611884 
L 282.204108 135.398014 
L 283.042786 136.757767 
L 283.881463 137.693137 
L 284.72014 138.213071 
L 285.558818 138.33295 
L 286.397495 138.07396 
L 287.236172 137.462409 
L 288.07485 136.52898 
L 288.913527 135.307949 
L 290.590882 132.153324 
L 292.268236 128.314076 
L 298.138978 113.949313 
L 299.816333 110.636446 
L 301.493687 107.990413 
L 302.332365 106.942942 
L 303.171042 106.085252 
L 304.009719 105.417499 
L 304.848397 104.936591 
L 305.687074 104.636477 
L 306.525752 104.508466 
L 307.364429 104.541566 
L 308.203106 104.722857 
L 309.880461 105.470881 
L 311.557816 106.624607 
L 314.073848 108.82 
L 318.267234 112.67832 
L 319.944589 114.000962 
L 321.621944 115.09888 
L 323.299299 115.939663 
L 324.976653 116.513457 
L 326.654008 116.829903 
L 328.331363 116.914185 
L 330.008717 116.802635 
L 332.524749 116.36303 
L 336.718136 115.275434 
L 340.911523 114.242909 
L 344.266232 113.687816 
L 347.620942 113.422691 
L 350.975651 113.401784 
L 356.007715 113.6337 
L 365.233166 114.08978 
L 371.942585 114.160719 
L 429.811323 114.045913 
L 430.65 114.045878 
L 430.65 114.045878 
" clip-path="url(#pd84eb20642)" style="fill: none; stroke: #b194e3; stroke-width: 4; stroke-linecap: square"/>
   </g>
  </g>
 </g>
 <defs>
  <clipPath id="pd84eb20642">
   <rect x="54" y="25.92" width="334.8" height="166.32"/>
  </clipPath>
 </defs>
</svg>
